<?xml version="1.0" encoding="utf-8"?>
<!-- Generator: Adobe Illustrator 22.1.0, SVG Export Plug-In . SVG Version: 6.00 Build 0)  -->
<svg version="1.1" id="Слой_1" xmlns="http://www.w3.org/2000/svg" xmlns:xlink="http://www.w3.org/1999/xlink" x="0px" y="0px"
	 viewBox="0 0 19 23" style="enable-background:new 0 0 19 23;" xml:space="preserve">
<style type="text/css">
	.st0{fill:#8EA1B1;}
	.st1{display:none;fill:#FFFFFF;}
</style>
<g>
	<path class="st0" d="M17,0H2C0.9,0,0,0.9,0,2v19c0,1.1,0.9,2,2,2h15c1.1,0,2-0.9,2-2V2C19,0.9,18.1,0,17,0z M16,18v1v1H3v-1v-1v-1
		v-2V3h2h9h2V18z"/>
	<path class="st0" d="M5,15v2v1h9V5H5V15z M12,15h-2v-2h2V15z M12,12h-2v-2h2V12z M7,7h5v2H7V7z M7,10h2v2H7V10z M7,13h2v2H7V13z"/>
	<rect x="7" y="10" class="st1" width="2" height="2"/>
	<rect x="7" y="13" class="st1" width="2" height="2"/>
	<rect x="10" y="10" class="st1" width="2" height="2"/>
	<rect x="7" y="7" class="st1" width="5" height="2"/>
	<rect x="10" y="13" class="st1" width="2" height="2"/>
	<polygon class="st1" points="5,5 5,3 3,3 3,15 5,15 	"/>
	<rect x="3" y="17" class="st1" width="2" height="1"/>
	<rect x="3" y="15" class="st1" width="2" height="2"/>
	<rect x="5" y="3" class="st1" width="9" height="2"/>
	<polygon class="st1" points="14,18 5,18 5,19 3,19 3,20 16,20 16,19 14,19 	"/>
	<rect x="3" y="18" class="st1" width="2" height="1"/>
	<polygon class="st1" points="14,5 14,18 16,18 16,3 14,3 	"/>
	<rect x="14" y="18" class="st1" width="2" height="1"/>
</g>
</svg>
