<svg width="30" height="30" viewBox="0 0 30 30" fill="none" xmlns="http://www.w3.org/2000/svg">
<circle cx="15" cy="15" r="15" fill="#FFC11F"/>
<path d="M18.211 24.2311V21.7479C18.6218 21.6721 18.9788 21.5762 19.2866 21.4575C20.1262 21.1333 20.7759 20.6593 21.2339 20.0392C21.6928 19.4173 21.9223 18.7387 21.9223 18.0036C21.9223 17.3853 21.7712 16.8273 21.47 16.3259C21.1697 15.8245 20.7598 15.4336 20.2451 15.1551C19.8891 14.956 19.3745 14.7734 18.7021 14.6071C19.3291 14.3998 19.8334 14.1414 20.2159 13.8254C20.5974 13.5103 20.8911 13.1468 21.096 12.7359C21.299 12.324 21.3982 11.8893 21.3982 11.4308C21.3982 10.8007 21.2074 10.2208 20.824 9.69289C20.4397 9.16503 19.891 8.76046 19.178 8.47826C18.9023 8.36867 18.5727 8.28739 18.2138 8.21981V5.76953H15.7831V8.05359H14.2192V5.76953H11.7865V8.05359H8.07617V9.97601H8.64278C9.01958 9.97601 9.2755 10.0089 9.4096 10.0756C9.5437 10.1422 9.63814 10.2317 9.69291 10.344C9.74768 10.4573 9.77507 10.7194 9.77507 11.1304V18.8775C9.77507 19.2812 9.74768 19.5433 9.69291 19.6584C9.63719 19.7744 9.5437 19.8657 9.4096 19.9269C9.2755 19.989 9.01958 20.0219 8.64278 20.0219H8.07617V21.9434H11.7865V24.2283H14.2192V21.9434H15.6027C15.665 21.9434 15.7217 21.9415 15.7821 21.9415V24.2283H18.2119L18.211 24.2311ZM13.3268 10.2975H14.901C15.8227 10.2975 16.4592 10.3523 16.8162 10.4619C17.1732 10.5715 17.4461 10.7559 17.6349 11.0144C17.8238 11.2737 17.9183 11.5852 17.9183 11.9505C17.9183 12.3021 17.8191 12.6126 17.6198 12.882C17.4206 13.1514 17.1259 13.3523 16.7312 13.4838C16.3374 13.6172 15.7273 13.6838 14.902 13.6838H13.3277L13.3268 10.2975ZM15.2363 19.7269H14.188C13.8386 19.7269 13.6243 19.7077 13.5449 19.6703C13.4666 19.6346 13.4099 19.5707 13.3759 19.4766C13.3485 19.4036 13.3315 19.1533 13.3249 18.7305V15.7231H15.1843C15.9993 15.7231 16.6056 15.7971 17.0032 15.9414C17.3998 16.0875 17.6963 16.3031 17.8946 16.5889C18.0939 16.8739 18.1931 17.2227 18.1931 17.6355C18.1931 18.1205 18.0533 18.5351 17.7719 18.8803C17.4914 19.2255 17.1514 19.4529 16.7501 19.5625C16.3516 19.6712 15.8463 19.7269 15.2363 19.7269Z" fill="white"/>
</svg>
