<?xml version="1.0" encoding="utf-8"?>
<!-- Generator: Adobe Illustrator 22.1.0, SVG Export Plug-In . SVG Version: 6.00 Build 0)  -->
<svg version="1.1" id="Слой_1" xmlns="http://www.w3.org/2000/svg" xmlns:xlink="http://www.w3.org/1999/xlink" x="0px" y="0px"
	 viewBox="0 0 20 25" style="enable-background:new 0 0 20 25;" xml:space="preserve">
<style type="text/css">
	.st0{fill:#8EA1B1;}
	.st1{display:none;fill:#FFFFFF;}
</style>
<g>
	<path class="st0" d="M18,0H7C5.9,0,5,0.9,5,2v1h10c1.1,0,2,0.9,2,2v15h1c1.1,0,2-0.9,2-2V2C20,0.9,19.1,0,18,0z"/>
	<rect x="2" y="5" class="st0" width="13" height="18"/>
	<path class="st1" d="M15,3H5H2C0.9,3,0,3.9,0,5v18c0,1.1,0.9,2,2,2h13c1.1,0,2-0.9,2-2v-3V5C17,3.9,16.1,3,15,3z M16,23
		c0,0.6-0.4,1-1,1H2c-0.6,0-1-0.4-1-1V5c0-0.6,0.4-1,1-1h13c0.6,0,1,0.4,1,1V23z"/>
	<path class="st1" d="M15,4H2C1.4,4,1,4.4,1,5v18c0,0.6,0.4,1,1,1h13c0.6,0,1-0.4,1-1V5C16,4.4,15.6,4,15,4z M15,23L2,23V5h13V23z"
		/>
</g>
</svg>
