<svg width="30" height="30" viewBox="0 0 30 30" fill="none" xmlns="http://www.w3.org/2000/svg">
<circle opacity="0.1" cx="15" cy="15" r="15" fill="#72899E"/>
<path d="M15.4318 21.0556L9.02734 17.9287L15.426 26.5392L16.3873 25.2455V20.5876L15.4318 21.0556Z" fill="#8A92B1"/>
<path d="M15.4254 3.46191L8.07617 16.6489H22.7748L15.4254 3.46191Z" fill="#8A92B1"/>
<path d="M22.7752 16.6684L15.4258 3.46191V16.6684H22.7752Z" fill="#62688E"/>
<path d="M15.4247 13.0674L15.3958 13.0537L8.07617 16.6595H8.08269L15.4023 20.2652L15.4312 20.2515L16.386 19.7842V13.5382L15.4247 13.0674Z" fill="#62688E"/>
<path d="M15.4316 21.0555L15.4258 26.5392L21.829 17.9229L15.4316 21.0555Z" fill="#62688E"/>
<path d="M22.761 16.6595L15.4254 13.0674L15.3965 13.0537L15.403 20.2652L15.4319 20.2515L22.7675 16.6595H22.761Z" fill="#454A74"/>
</svg>
