<?xml version="1.0" encoding="utf-8"?>
<!-- Generator: Adobe Illustrator 22.1.0, SVG Export Plug-In . SVG Version: 6.00 Build 0)  -->
<svg version="1.1" id="Слой_1" xmlns="http://www.w3.org/2000/svg" xmlns:xlink="http://www.w3.org/1999/xlink" x="0px" y="0px"
	 viewBox="0 0 22 20" style="enable-background:new 0 0 22 20;" xml:space="preserve">
<style type="text/css">
	.st0{display:none;fill:#FFFFFF;}
	.st1{fill:#8EA1B1;}
</style>
<g>
	<polygon class="st0" points="7,11 7,9 14,9 15,9 15,6 14,6 4,6 4,14 14,14 15,14 15,11 14,11 	"/>
	<g>
		<path class="st1" d="M4,6h10V2c0-1.1-0.9-2-2-2H2C0.9,0,0,0.9,0,2v16c0,1.1,0.9,2,2,2h10c1.1,0,2-0.9,2-2v-4H4V6z"/>
		<path class="st1" d="M20.8,9.2L17.6,7c-0.7-0.4-1.6,0-1.6,0.8V9h-1h-1H7v2h7h1h1v1.1c0,0.8,0.9,1.3,1.6,0.8l3.2-2.1
			C21.3,10.4,21.3,9.6,20.8,9.2z"/>
	</g>
</g>
</svg>
