<svg width="30" height="30" viewBox="0 0 30 30" fill="none" xmlns="http://www.w3.org/2000/svg">
<path d="M15 0C12.0333 0 9.13319 0.879734 6.66645 2.52796C4.19972 4.17618 2.27713 6.51886 1.14181 9.25975C0.00649924 12.0006 -0.290551 15.0166 0.288227 17.9263C0.867006 20.8361 2.29562 23.5088 4.3934 25.6066C6.49119 27.7044 9.16393 29.133 12.0736 29.7118C14.9834 30.2906 17.9994 29.9935 20.7403 28.8582C23.4811 27.7229 25.8238 25.8003 27.472 23.3335C29.1203 20.8668 30 17.9667 30 15C30 13.0302 29.612 11.0796 28.8582 9.25975C28.1044 7.43986 26.9995 5.78628 25.6066 4.3934C24.2137 3.00052 22.5601 1.89563 20.7403 1.14181C18.9204 0.387986 16.9698 0 15 0V0ZM15.2431 15.4935L13.6829 20.7583H22.0283C22.0947 20.7585 22.1601 20.7741 22.2194 20.8039C22.2787 20.8337 22.3303 20.8768 22.37 20.93C22.4098 20.9831 22.4367 21.0448 22.4485 21.1101C22.4604 21.1754 22.4569 21.2425 22.4383 21.3062L21.7126 23.8062C21.678 23.9257 21.6055 24.0306 21.506 24.1052C21.4065 24.1798 21.2855 24.2201 21.1611 24.2199H8.41437L10.5697 16.9412L8.18578 17.6669L8.71191 15.9652L11.0994 15.2395L14.1255 5.01451C14.1588 4.89469 14.2304 4.78905 14.3293 4.71371C14.4282 4.63836 14.5491 4.59746 14.6734 4.59724H17.9028C17.969 4.597 18.0344 4.61215 18.0939 4.64149C18.1533 4.67083 18.2051 4.71357 18.2452 4.76632C18.2853 4.81908 18.3126 4.88043 18.3249 4.94554C18.3373 5.01064 18.3344 5.07772 18.3164 5.14151L15.7765 13.7881L18.1604 13.0624L17.6488 14.7932L15.2431 15.4935Z" fill="#315A97"/>
</svg>
