<svg width="16" height="17" viewBox="0 0 16 17" fill="none" xmlns="http://www.w3.org/2000/svg">
<path fill-rule="evenodd" clip-rule="evenodd" d="M8.80602 14.404C12.7791 14.404 16 11.1795 16 7.20199C16 3.22444 12.7791 -1.40788e-07 8.80602 -3.14459e-07C4.8329 -4.88129e-07 1.61205 3.22444 1.61205 7.20198C1.61205 8.90228 2.2006 10.465 3.18489 11.697L0.247506 14.6383L0.181012 14.7137C-0.0628039 15.0277 -0.0406406 15.4816 0.247505 15.77C0.559663 16.0825 1.06577 16.0825 1.37793 15.77L4.31604 12.8294C5.54669 13.8148 7.10762 14.404 8.80602 14.404ZM8.80354 1.5994C11.8937 1.5994 14.3989 4.10729 14.3989 7.20094C14.3989 10.2946 11.8937 12.8025 8.80354 12.8025C5.71333 12.8025 3.20822 10.2946 3.20822 7.20094C3.20822 4.10729 5.71333 1.5994 8.80354 1.5994Z" fill="#8EA1B1"/>
</svg>
