<svg width="18" height="19" viewBox="0 0 18 19" fill="none" xmlns="http://www.w3.org/2000/svg">
<path d="M13.7391 11.5851C12.7311 11.5851 11.8287 12.0373 11.2299 12.7461L7.33504 10.5714C7.45616 10.2363 7.52273 9.87585 7.52273 9.50026C7.52273 9.12475 7.45616 8.76434 7.33504 8.42915L11.2296 6.25394C11.8283 6.963 12.7309 7.41536 13.7389 7.41536C15.537 7.41536 16.9999 5.97621 16.9999 4.20719C17.0001 2.43869 15.5372 1 13.7391 1C11.9408 1 10.4777 2.43869 10.4777 4.20712C10.4777 4.58271 10.5442 4.94319 10.6654 5.27845L6.7706 7.45374C6.17192 6.74505 5.26959 6.293 4.26182 6.293C2.46327 6.293 1 7.73169 1 9.50019C1 11.2686 2.46327 12.7073 4.26182 12.7073C5.26959 12.7073 6.17184 12.2552 6.77052 11.5466L10.6654 13.7214C10.5442 14.0567 10.4776 14.4172 10.4776 14.7929C10.4776 16.5613 11.9407 18 13.739 18C15.5371 18 17 16.5612 17 14.7929C17.0001 13.0242 15.5372 11.5851 13.7391 11.5851ZM13.7391 2.12229C14.9079 2.12229 15.8589 3.05752 15.8589 4.20712C15.8589 5.35731 14.9079 6.293 13.7391 6.293C12.57 6.293 11.6189 5.35731 11.6189 4.20712C11.6189 3.05752 12.57 2.12229 13.7391 2.12229ZM4.2619 11.5851C3.09261 11.5851 2.14129 10.6498 2.14129 9.50026C2.14129 8.35059 3.09261 7.41536 4.2619 7.41536C5.43073 7.41536 6.38159 8.35059 6.38159 9.50026C6.38159 10.6498 5.43066 11.5851 4.2619 11.5851ZM13.7391 16.8778C12.57 16.8778 11.6189 15.9425 11.6189 14.793C11.6189 13.643 12.57 12.7074 13.7391 12.7074C14.9079 12.7074 15.8589 13.643 15.8589 14.793C15.8589 15.9425 14.9079 16.8778 13.7391 16.8778Z" fill="#313E4C" stroke="#313E4C" stroke-width="0.6"/>
</svg>
