<?xml version="1.0" encoding="utf-8"?>
<!-- Generator: Adobe Illustrator 22.1.0, SVG Export Plug-In . SVG Version: 6.00 Build 0)  -->
<svg version="1.1" id="Слой_1" xmlns="http://www.w3.org/2000/svg" xmlns:xlink="http://www.w3.org/1999/xlink" x="0px" y="0px"
	 viewBox="0 0 18 21" style="enable-background:new 0 0 18 21;" xml:space="preserve">
<style type="text/css">
	.st0{fill:#8EA1B1;}
	.st1{display:none;fill:#FFFFFF;}
</style>
<g>
	<path class="st0" d="M16,0H2C0.9,0,0,0.9,0,2v14c0,1.1,0.9,2,2,2h4l3,3v-3h0l0,3l3-3h4c1.1,0,2-0.9,2-2V2C18,0.9,17.1,0,16,0z M9,3
		c0.6,0,1,0.4,1,1S9.6,5,9,5S8,4.6,8,4S8.4,3,9,3z M8,7h2v8H8V7z"/>
	<rect x="8" y="7" class="st1" width="2" height="8"/>
	<circle class="st1" cx="9" cy="4" r="1"/>
</g>
</svg>
