<svg width="30" height="30" viewBox="0 0 30 30" fill="none" xmlns="http://www.w3.org/2000/svg">
<path d="M30 15C30 22.3451 24.7206 28.4572 17.749 29.7483C16.8582 29.9137 15.9392 30 15 30C13.9678 30 12.96 29.8959 11.9865 29.697C5.14652 28.3022 0 22.252 0 15C0 11.0014 1.56492 7.36717 4.11609 4.67877C4.26363 4.52268 4.41486 4.37021 4.56914 4.2208C7.26855 1.60775 10.9463 0 15 0C19.0537 0 22.7314 1.60775 25.4308 4.2208C25.4945 4.28203 25.5575 4.34449 25.62 4.40689C28.3267 7.11978 30 10.8649 30 15Z" fill="#1BA27A"/>
<path d="M17.7499 12.7634V9.42055H25.6209V4.2207H4.11697V9.42049H11.9874V12.7762C5.62986 13.1013 0.867188 14.4335 0.867188 16.0279C0.867188 17.6221 5.62986 18.9544 11.9874 19.2795V29.6968C12.9609 29.8958 13.9686 29.9999 15.0009 29.9999C15.9401 29.9999 16.8591 29.9136 17.7499 29.7483V19.2924C24.2396 18.9911 29.1346 17.6442 29.1346 16.0279C29.1346 14.4116 24.2396 13.0646 17.7499 12.7634ZM15.0009 18.0826C7.90922 18.0826 2.16029 17.0142 2.16029 15.6961C2.16029 14.5708 6.34986 13.6273 11.9875 13.3756V17.1979C12.9432 17.3356 13.9062 17.4048 14.8687 17.4048C15.8317 17.4048 16.7948 17.3356 17.7499 17.1979V13.364C23.5204 13.5985 27.8409 14.5529 27.8409 15.696C27.8409 17.0142 22.0919 18.0826 15.0009 18.0826Z" fill="white"/>
</svg>
